#define Arch_width 15
#define Arch_height 14
static unsigned char Arch_bits[] = {
   0x00, 0x00, 0x80, 0x00, 0xc0, 0x00, 0xc0, 0x01, 0xc0, 0x01, 0xe0, 0x03,
   0xf0, 0x03, 0xf0, 0x07, 0x78, 0x07, 0x38, 0x0e, 0x3c, 0x0e, 0x1e, 0x1e,
   0x06, 0x38, 0x00, 0x00 };
