#define arch_width 16
#define arch_height 16
static unsigned char arch_bits[] = {
   0x00, 0x00, 0x80, 0x01, 0x80, 0x01, 0x80, 0x01, 0xc0, 0x03, 0x80, 0x03,
   0xe0, 0x07, 0xe0, 0x07, 0xf0, 0x0f, 0x70, 0x0e, 0x78, 0x1e, 0x3c, 0x1c,
   0x3c, 0x1c, 0x1e, 0x78, 0x02, 0x60, 0x00, 0x00 };
