#define battery_width 16
#define battery_height 16
static unsigned char battery_bits[] = {
   0x00, 0x00, 0x00, 0x00, 0x00, 0x00, 0x00, 0x00, 0xfe, 0x1f, 0x01, 0x20,
   0xfd, 0xef, 0xfd, 0xaf, 0xfd, 0xaf, 0xfd, 0xef, 0x01, 0x20, 0xfe, 0x1f,
   0x00, 0x00, 0x00, 0x00, 0x00, 0x00, 0x00, 0x00 };
