#define hd_width 16
#define hd_height 16
static unsigned char hd_bits[] = {
   0x00, 0x00, 0x00, 0x00, 0x00, 0x00, 0xf8, 0x1f, 0x08, 0x10, 0x0c, 0x30,
   0x04, 0x20, 0x04, 0x20, 0x04, 0x20, 0xfc, 0x7f, 0x04, 0x40, 0x04, 0x40,
   0xfc, 0x7f, 0x00, 0x00, 0x00, 0x00, 0x00, 0x00 };
