#define wifi_width 16
#define wifi_height 16
static unsigned char wifi_bits[] = {
   0x00, 0x00, 0x00, 0x00, 0x00, 0x1c, 0x00, 0x1c, 0x00, 0x1c, 0x00, 0x1c,
   0xc0, 0x1f, 0xc0, 0x1f, 0xc0, 0x1f, 0xf8, 0x1f, 0xf8, 0x1f, 0xf8, 0x1f,
   0xf8, 0x1f, 0xf8, 0x1f, 0x00, 0x00, 0x00, 0x00 };
