#define wifi_width 16
#define wifi_height 16
static unsigned char wifi_bits[] = {
   0x00, 0x00, 0x00, 0x00, 0x00, 0x00, 0x00, 0x00, 0xf0, 0x0f, 0x0c, 0x30,
   0xc4, 0x23, 0x30, 0x0c, 0x00, 0x00, 0xe0, 0x07, 0x00, 0x00, 0x80, 0x01,
   0x00, 0x00, 0x00, 0x00, 0x00, 0x00, 0x00, 0x00 };
