#define brightness_width 16
#define brightness_height 16
static unsigned char brightness_bits[] = {
   0x00, 0x00, 0x00, 0x00, 0x00, 0x00, 0x08, 0x10, 0x10, 0x08, 0xc0, 0x03,
   0xe0, 0x07, 0xe0, 0x07, 0xe0, 0x07, 0xe0, 0x07, 0xc0, 0x03, 0x10, 0x08,
   0x08, 0x10, 0x00, 0x00, 0x00, 0x00, 0x00, 0x00 };
