#define leftarrow2_width 16
#define leftarrow2_height 16
static unsigned char leftarrow2_bits[] = {
   0x00, 0xff, 0x80, 0x7f, 0xc0, 0x3f, 0xe0, 0x1f, 0xf0, 0x0f, 0xf8, 0x07,
   0xfc, 0x03, 0xfe, 0x01, 0xfe, 0x01, 0xfc, 0x03, 0xf8, 0x07, 0xf0, 0x0f,
   0xe0, 0x1f, 0xc0, 0x3f, 0x80, 0x7f, 0x00, 0xff };
