#define ram_width 16
#define ram_height 16
static unsigned char ram_bits[] = {
   0x00, 0x00, 0x00, 0x00, 0x00, 0x00, 0x00, 0x00, 0x6c, 0x36, 0x6c, 0x36,
   0x6c, 0x36, 0x6c, 0x36, 0x6c, 0x36, 0x00, 0x00, 0x00, 0x00, 0xff, 0xff,
   0xc1, 0x81, 0xc9, 0x93, 0x00, 0x00, 0x00, 0x00 };
