#define temp_width 16
#define temp_height 16
static unsigned char temp_bits[] = {
   0x00, 0x00, 0x00, 0x00, 0xc0, 0x07, 0x40, 0x02, 0x40, 0x07, 0x40, 0x03,
   0x40, 0x07, 0x40, 0x03, 0x60, 0x07, 0xa0, 0x05, 0xa0, 0x0b, 0xa0, 0x05,
   0x20, 0x04, 0xc0, 0x03, 0x00, 0x00, 0x00, 0x00 };
