#define calendar_width 16
#define calendar_height 16
static unsigned char calendar_bits[] = {
   0x00, 0x00, 0x08, 0x08, 0xfe, 0x3f, 0x0a, 0x28, 0x02, 0x20, 0xfe, 0x3f,
   0x02, 0x20, 0xa2, 0x2a, 0x02, 0x20, 0xaa, 0x2a, 0x02, 0x20, 0xaa, 0x20,
   0x02, 0x20, 0xfe, 0x3f, 0x00, 0x00, 0x00, 0x00 };
