#define clock_width 16
#define clock_height 16
static unsigned char clock_bits[] = {
   0x00, 0x00, 0xe0, 0x03, 0x18, 0x0c, 0x8c, 0x18, 0x84, 0x10, 0x82, 0x20,
   0x82, 0x20, 0x82, 0x23, 0x02, 0x20, 0x02, 0x20, 0x04, 0x10, 0x0c, 0x18,
   0x18, 0x0c, 0xe0, 0x03, 0x00, 0x00, 0x00, 0x00 };
