#define discharging_width 16
#define discharging_height 16
static unsigned char discharging_bits[] = {
   0x00, 0x00, 0x00, 0x00, 0x00, 0x00, 0x00, 0x00, 0xfe, 0x1f, 0x01, 0x20,
   0x01, 0xe0, 0x01, 0xa0, 0x01, 0xa0, 0x01, 0xe0, 0x01, 0x20, 0xfe, 0x1f,
   0x00, 0x00, 0x00, 0x00, 0x00, 0x00, 0x00, 0x00 };
