#define rightarrow_width 16
#define rightarrow_height 16
static unsigned char rightarrow_bits[] = {
   0xff, 0x00, 0xff, 0x01, 0xff, 0x03, 0xff, 0x07, 0xff, 0x0f, 0xff, 0x1f,
   0xff, 0x3f, 0xff, 0x7f, 0xff, 0x7f, 0xff, 0x3f, 0xff, 0x1f, 0xff, 0x0f,
   0xff, 0x07, 0xff, 0x03, 0xff, 0x01, 0xff, 0x00 };
