#define charging_width 16
#define charging_height 16
static unsigned char charging_bits[] = {
   0x00, 0x00, 0x00, 0x00, 0x00, 0x00, 0x00, 0x00, 0xfe, 0x1f, 0x01, 0x20,
   0x41, 0xe0, 0xf1, 0xa0, 0xc1, 0xa3, 0x81, 0xe0, 0x01, 0x20, 0xfe, 0x1f,
   0x00, 0x00, 0x00, 0x00, 0x00, 0x00, 0x00, 0x00 };
