#define root_width 16
#define root_height 16
static unsigned char root_bits[] = {
   0x00, 0x00, 0xf8, 0x1f, 0xfc, 0x3f, 0xfc, 0x3f, 0xfc, 0x3f, 0xfc, 0x3f,
   0xfc, 0x3f, 0xfc, 0x3f, 0xfe, 0x7f, 0x00, 0x00, 0xfe, 0x7f, 0xce, 0x6c,
   0xce, 0x64, 0xfe, 0x7f, 0xfe, 0x7f, 0x00, 0x00 };
