#define swap_width 16
#define swap_height 16
static unsigned char swap_bits[] = {
   0x00, 0x00, 0x00, 0x00, 0x04, 0x06, 0x0e, 0x19, 0x95, 0x10, 0x84, 0x10,
   0x84, 0x10, 0x84, 0x10, 0x84, 0x10, 0x84, 0x10, 0x84, 0x10, 0x84, 0x54,
   0xcc, 0x38, 0x78, 0x10, 0x00, 0x00, 0x00, 0x00 };
